<mxfile modified="2023-01-04T06:00:37.232Z" host="app.diagrams.net" agent="5.0 (Windows NT 10.0; Win64; x64) AppleWebKit/537.36 (KHTML, like Gecko) Chrome/108.0.0.0 Safari/537.36" etag="dwkBj_N_QddNQcqQWN-U" version="20.5.3" type="github">
  <diagram id="nFkIb_0lraF-PDWOpgHU" name="Page-1">
    <mxGraphModel dx="920" dy="433" grid="1" gridSize="10" guides="1" tooltips="1" connect="1" arrows="1" fold="1" page="1" pageScale="1" pageWidth="480" pageHeight="760" math="1" shadow="0">
      <root>
        <mxCell id="0" />
        <mxCell id="1" parent="0" />
        <mxCell id="qD7VDa8J_AhCRNE9viBT-16" value="DQ_SerialManipulator" style="swimlane;fontStyle=3;childLayout=stackLayout;horizontal=1;startSize=26;horizontalStack=0;resizeParent=1;resizeParentMax=0;resizeLast=0;collapsible=1;marginBottom=0;labelBackgroundColor=none;" parent="1" vertex="1">
          <mxGeometry x="135" y="198" width="211" height="208" as="geometry" />
        </mxCell>
        <mxCell id="qD7VDa8J_AhCRNE9viBT-18" value="# joint_types" style="text;strokeColor=#000000;fillColor=none;align=left;verticalAlign=top;spacingLeft=4;spacingRight=4;overflow=hidden;rotatable=0;points=[[0,0.5],[1,0.5]];portConstraint=eastwest;" parent="qD7VDa8J_AhCRNE9viBT-16" vertex="1">
          <mxGeometry y="26" width="211" height="26" as="geometry" />
        </mxCell>
        <mxCell id="9N9QTyKiOGJl-lIbeTHX-1" value="# get_supported_joint_types()&#xa;" style="text;align=left;verticalAlign=top;spacingLeft=4;spacingRight=4;overflow=hidden;rotatable=0;points=[[0,0.5],[1,0.5]];portConstraint=eastwest;labelBackgroundColor=none;fontStyle=2" parent="qD7VDa8J_AhCRNE9viBT-16" vertex="1">
          <mxGeometry y="52" width="211" height="26" as="geometry" />
        </mxCell>
        <mxCell id="3LWg-SJh1CjgJ9ito9vP-3" value="+ check_joint_types()&#xa;" style="text;align=left;verticalAlign=top;spacingLeft=4;spacingRight=4;overflow=hidden;rotatable=0;points=[[0,0.5],[1,0.5]];portConstraint=eastwest;labelBackgroundColor=none;fontStyle=0" vertex="1" parent="qD7VDa8J_AhCRNE9viBT-16">
          <mxGeometry y="78" width="211" height="26" as="geometry" />
        </mxCell>
        <mxCell id="3LWg-SJh1CjgJ9ito9vP-2" value="+ set_joint_types()&#xa;" style="text;align=left;verticalAlign=top;spacingLeft=4;spacingRight=4;overflow=hidden;rotatable=0;points=[[0,0.5],[1,0.5]];portConstraint=eastwest;labelBackgroundColor=none;fontStyle=0" vertex="1" parent="qD7VDa8J_AhCRNE9viBT-16">
          <mxGeometry y="104" width="211" height="26" as="geometry" />
        </mxCell>
        <mxCell id="3LWg-SJh1CjgJ9ito9vP-4" value="+ set_joint_type()&#xa;" style="text;align=left;verticalAlign=top;spacingLeft=4;spacingRight=4;overflow=hidden;rotatable=0;points=[[0,0.5],[1,0.5]];portConstraint=eastwest;labelBackgroundColor=none;fontStyle=0" vertex="1" parent="qD7VDa8J_AhCRNE9viBT-16">
          <mxGeometry y="130" width="211" height="26" as="geometry" />
        </mxCell>
        <mxCell id="3LWg-SJh1CjgJ9ito9vP-5" value="+ get_joint_types()&#xa;" style="text;align=left;verticalAlign=top;spacingLeft=4;spacingRight=4;overflow=hidden;rotatable=0;points=[[0,0.5],[1,0.5]];portConstraint=eastwest;labelBackgroundColor=none;fontStyle=0" vertex="1" parent="qD7VDa8J_AhCRNE9viBT-16">
          <mxGeometry y="156" width="211" height="26" as="geometry" />
        </mxCell>
        <mxCell id="3LWg-SJh1CjgJ9ito9vP-6" value="+ get_joint_type()&#xa;" style="text;align=left;verticalAlign=top;spacingLeft=4;spacingRight=4;overflow=hidden;rotatable=0;points=[[0,0.5],[1,0.5]];portConstraint=eastwest;labelBackgroundColor=none;fontStyle=0" vertex="1" parent="qD7VDa8J_AhCRNE9viBT-16">
          <mxGeometry y="182" width="211" height="26" as="geometry" />
        </mxCell>
        <mxCell id="9N9QTyKiOGJl-lIbeTHX-11" style="edgeStyle=orthogonalEdgeStyle;rounded=0;orthogonalLoop=1;jettySize=auto;html=1;endArrow=block;endFill=0;endSize=17;startSize=10;" parent="1" source="9N9QTyKiOGJl-lIbeTHX-4" edge="1">
          <mxGeometry relative="1" as="geometry">
            <mxPoint x="168" y="410" as="targetPoint" />
          </mxGeometry>
        </mxCell>
        <mxCell id="9N9QTyKiOGJl-lIbeTHX-4" value="DQ_SerialManipulatorDH" style="swimlane;fontStyle=1;childLayout=stackLayout;horizontal=1;startSize=26;fillColor=none;horizontalStack=0;resizeParent=1;resizeParentMax=0;resizeLast=0;collapsible=1;marginBottom=0;labelBackgroundColor=none;" parent="1" vertex="1">
          <mxGeometry x="10" y="470" width="211" height="52" as="geometry" />
        </mxCell>
        <mxCell id="3LWg-SJh1CjgJ9ito9vP-7" value="# get_supported_joint_types()&#xa;" style="text;align=left;verticalAlign=top;spacingLeft=4;spacingRight=4;overflow=hidden;rotatable=0;points=[[0,0.5],[1,0.5]];portConstraint=eastwest;labelBackgroundColor=none;fontStyle=0" vertex="1" parent="9N9QTyKiOGJl-lIbeTHX-4">
          <mxGeometry y="26" width="211" height="26" as="geometry" />
        </mxCell>
        <mxCell id="nU-Z7-0-bmRPPjdQGKX--5" style="edgeStyle=orthogonalEdgeStyle;rounded=0;orthogonalLoop=1;jettySize=auto;html=1;fontFamily=Alice;fontSource=https%3A%2F%2Ffonts.googleapis.com%2Fcss%3Ffamily%3DAlice;fontColor=#000000;endArrow=block;endFill=0;endSize=17;" parent="1" source="nU-Z7-0-bmRPPjdQGKX--1" edge="1">
          <mxGeometry relative="1" as="geometry">
            <mxPoint x="320" y="410" as="targetPoint" />
          </mxGeometry>
        </mxCell>
        <mxCell id="nU-Z7-0-bmRPPjdQGKX--1" value="DQ_SerialManipulatorMDH" style="swimlane;fontStyle=1;childLayout=stackLayout;horizontal=1;startSize=26;horizontalStack=0;resizeParent=1;resizeParentMax=0;resizeLast=0;collapsible=1;marginBottom=0;labelBackgroundColor=none;" parent="1" vertex="1">
          <mxGeometry x="260" y="470" width="211" height="52" as="geometry" />
        </mxCell>
        <mxCell id="3LWg-SJh1CjgJ9ito9vP-8" value="# get_supported_joint_types()&#xa;" style="text;align=left;verticalAlign=top;spacingLeft=4;spacingRight=4;overflow=hidden;rotatable=0;points=[[0,0.5],[1,0.5]];portConstraint=eastwest;labelBackgroundColor=none;fontStyle=0" vertex="1" parent="nU-Z7-0-bmRPPjdQGKX--1">
          <mxGeometry y="26" width="211" height="26" as="geometry" />
        </mxCell>
      </root>
    </mxGraphModel>
  </diagram>
</mxfile>
